<svg width="637" height="216" viewBox="0 0 637 216" fill="none" xmlns="http://www.w3.org/2000/svg">
<path d="M157.119 133.453L173.865 143.166L157.119 152.88L140.373 143.166L157.119 133.453Z" fill="#FA693A"/>
<path d="M157.104 152.848L157.085 172.244L140.321 162.562L140.339 143.166L157.104 152.848Z" fill="#AD4929"/>
<path d="M156.961 152.848L173.726 143.166L173.744 162.562L156.979 172.244L156.961 152.848Z" fill="#5A28AD"/>
<path d="M107.45 85.791L124.197 95.5047L107.45 105.218L90.7041 95.5047L107.45 85.791Z" fill="#FA693A"/>
<path d="M107.435 105.187L107.416 124.582L90.6517 114.9L90.6701 95.5048L107.435 105.187Z" fill="#AD4929"/>
<path d="M107.292 105.186L124.057 95.5046L124.075 114.9L107.31 124.582L107.292 105.186Z" fill="#CF5830"/>
<path d="M90.8937 95.3237L107.64 105.037L90.8937 114.751L74.1475 105.037L90.8937 95.3237Z" fill="#FA693A"/>
<path d="M90.878 114.719L90.8596 134.115L74.0951 124.433L74.1134 105.038L90.878 114.719Z" fill="#AD4929"/>
<path d="M90.7354 114.719L107.5 105.037L107.518 124.433L90.7538 134.115L90.7354 114.719Z" fill="#CF5830"/>
<path d="M124.008 95.3237L140.754 105.037L124.008 114.751L107.262 105.037L124.008 95.3237Z" fill="#FA693A"/>
<path d="M123.992 114.719L123.974 134.115L107.209 124.433L107.228 105.038L123.992 114.719Z" fill="#AD4929"/>
<path d="M123.85 114.719L140.614 105.037L140.633 124.433L123.868 134.115L123.85 114.719Z" fill="#CF5830"/>
<path d="M140.564 104.855L157.31 114.569L140.564 124.283L123.817 114.569L140.564 104.855Z" fill="#FA693A"/>
<path d="M140.548 124.251L140.53 143.646L123.765 133.965L123.783 114.569L140.548 124.251Z" fill="#AD4929"/>
<path d="M140.405 124.251L157.17 114.569L157.188 133.965L140.424 143.646L140.405 124.251Z" fill="#CF5830"/>
<path d="M91.3976 0L108.144 9.7137L91.3976 19.4274L74.6514 9.7137L91.3976 0Z" fill="#FA693A"/>
<path d="M91.3819 19.3956L91.3635 38.7911L74.599 29.1093L74.6173 9.71379L91.3819 19.3956Z" fill="#AD4929"/>
<path d="M91.2393 19.3954L108.004 9.71359L108.022 29.1091L91.2577 38.7909L91.2393 19.3954Z" fill="#CF5830"/>
<path d="M140.564 142.985L157.31 152.699L140.564 162.412L123.817 152.699L140.564 142.985Z" fill="#FA693A"/>
<path d="M140.548 162.38L140.53 181.776L123.765 172.094L123.783 152.699L140.548 162.38Z" fill="#AD4929"/>
<path d="M140.405 162.38L157.17 152.698L157.188 172.094L140.424 181.776L140.405 162.38Z" fill="#CF5830"/>
<path d="M124.008 152.517L140.754 162.231L124.008 171.945L107.262 162.231L124.008 152.517Z" fill="#FA693A"/>
<path d="M123.992 171.913L123.974 191.308L107.209 181.627L107.228 162.231L123.992 171.913Z" fill="#AD4929"/>
<path d="M123.85 171.913L140.614 162.231L140.633 181.627L123.868 191.309L123.85 171.913Z" fill="#CF5830"/>
<path d="M25.172 133.453L41.9182 143.166L25.172 152.88L8.42578 143.166L25.172 133.453Z" fill="#FA693A"/>
<path d="M25.1563 152.848L25.1379 172.244L8.37337 162.562L8.39174 143.166L25.1563 152.848Z" fill="#AD4929"/>
<path d="M25.0137 152.848L41.7783 143.166L41.7967 162.562L25.0321 172.244L25.0137 152.848Z" fill="#CF5830"/>
<path d="M41.2267 142.985L57.9729 152.699L41.2267 162.412L24.4805 152.699L41.2267 142.985Z" fill="#FA693A"/>
<path d="M41.211 162.38L41.1926 181.776L24.4281 172.094L24.4464 152.699L41.211 162.38Z" fill="#AD4929"/>
<path d="M41.0684 162.38L57.833 152.698L57.8514 172.094L41.0868 181.776L41.0684 162.38Z" fill="#CF5830"/>
<path d="M57.7823 152.517L74.5286 162.231L57.7823 171.945L41.0361 162.231L57.7823 152.517Z" fill="#FA693A"/>
<path d="M57.7667 171.913L57.7483 191.308L40.9837 181.627L41.0021 162.231L57.7667 171.913Z" fill="#AD4929"/>
<path d="M57.6241 171.913L74.3887 162.231L74.407 181.627L57.6424 191.309L57.6241 171.913Z" fill="#CF5830"/>
<path d="M74.338 162.049L91.0842 171.763L74.338 181.476L57.5918 171.763L74.338 162.049Z" fill="#FA693A"/>
<path d="M74.3223 181.445L74.304 200.84L57.5394 191.158L57.5578 171.763L74.3223 181.445Z" fill="#AD4929"/>
<path d="M74.1797 181.445L90.9443 171.763L90.9627 191.158L74.1981 200.84L74.1797 181.445Z" fill="#CF5830"/>
<path d="M107.45 162.049L124.197 171.763L107.45 181.476L90.7041 171.763L107.45 162.049Z" fill="#FA693A"/>
<path d="M107.435 181.445L107.416 200.84L90.6517 191.158L90.6701 171.763L107.435 181.445Z" fill="#AD4929"/>
<path d="M107.292 181.445L124.057 171.763L124.075 191.158L107.31 200.84L107.292 181.445Z" fill="#CF5830"/>
<path d="M25.172 114.388L41.9182 124.102L25.172 133.815L8.42578 124.102L25.172 114.388Z" fill="#FA693A"/>
<path d="M25.1563 133.784L25.1379 153.179L8.37337 143.497L8.39174 124.102L25.1563 133.784Z" fill="#AD4929"/>
<path d="M25.0137 133.784L41.7783 124.102L41.7967 143.497L25.0321 153.179L25.0137 133.784Z" fill="#CF5830"/>
<path d="M25.172 95.3237L41.9182 105.037L25.172 114.751L8.42578 105.037L25.172 95.3237Z" fill="#FA693A"/>
<path d="M25.1563 114.719L25.1379 134.115L8.37337 124.433L8.39174 105.038L25.1563 114.719Z" fill="#AD4929"/>
<path d="M25.0137 114.719L41.7783 105.037L41.7967 124.433L25.0321 134.115L25.0137 114.719Z" fill="#CF5830"/>
<path d="M25.172 76.2585L41.9182 85.9722L25.172 95.686L8.42578 85.9722L25.172 76.2585Z" fill="#FA693A"/>
<path d="M25.1563 95.6542L25.1379 115.05L8.37337 105.368L8.39174 85.9723L25.1563 95.6542Z" fill="#AD4929"/>
<path d="M25.0137 95.6542L41.7783 85.9724L41.7967 105.368L25.0321 115.05L25.0137 95.6542Z" fill="#CF5830"/>
<path d="M25.172 57.1943L41.9182 66.908L25.172 76.6217L8.42578 66.908L25.172 57.1943Z" fill="#FA693A"/>
<path d="M25.1563 76.5899L25.1379 95.9855L8.37337 86.3036L8.39174 66.9081L25.1563 76.5899Z" fill="#AD4929"/>
<path d="M25.0137 76.5897L41.7783 66.9079L41.7967 86.3034L25.0321 95.9853L25.0137 76.5897Z" fill="#CF5830"/>
<path d="M74.839 9.53271L91.5852 19.2464L74.839 28.9601L58.0928 19.2464L74.839 9.53271Z" fill="#FA693A"/>
<path d="M74.8233 28.9283L74.8049 48.3238L58.0404 38.642L58.0587 19.2465L74.8233 28.9283Z" fill="#AD4929"/>
<path d="M74.6807 28.9281L91.4453 19.2463L91.4637 38.6418L74.6991 48.3236L74.6807 28.9281Z" fill="#CF5830"/>
<path d="M58.2833 19.0647L75.0295 28.7784L58.2833 38.4921L41.5371 28.7784L58.2833 19.0647Z" fill="#FA693A"/>
<path d="M58.2676 38.4603L58.2493 57.8558L41.4847 48.174L41.5031 28.7785L58.2676 38.4603Z" fill="#AD4929"/>
<path d="M58.1251 38.4603L74.8896 28.7785L74.908 48.1741L58.1434 57.8559L58.1251 38.4603Z" fill="#CF5830"/>
<path d="M41.7277 28.5969L58.4739 38.3106L41.7277 48.0243L24.9814 38.3106L41.7277 28.5969Z" fill="#FA693A"/>
<path d="M41.712 47.9925L41.6936 67.3881L24.929 57.7062L24.9474 38.3107L41.712 47.9925Z" fill="#AD4929"/>
<path d="M41.5694 47.9926L58.334 38.3108L58.3523 57.7063L41.5878 67.3881L41.5694 47.9926Z" fill="#CF5830"/>
<path d="M25.172 38.1294L41.9182 47.8431L25.172 57.5568L8.42578 47.8431L25.172 38.1294Z" fill="#FA693A"/>
<path d="M25.1563 57.525L25.1379 76.9205L8.37337 67.2387L8.39174 47.8432L25.1563 57.525Z" fill="#AD4929"/>
<path d="M25.0137 57.5248L41.7783 47.843L41.7967 67.2385L25.0321 76.9203L25.0137 57.5248Z" fill="#CF5830"/>
<path d="M107.953 9.53271L124.699 19.2464L107.953 28.9601L91.207 19.2464L107.953 9.53271Z" fill="#FA693A"/>
<path d="M107.938 28.9283L107.919 48.3238L91.1546 38.642L91.173 19.2465L107.938 28.9283Z" fill="#AD4929"/>
<path d="M107.795 28.9281L124.56 19.2463L124.578 38.6418L107.813 48.3236L107.795 28.9281Z" fill="#CF5830"/>
<path d="M124.509 19.0647L141.255 28.7784L124.509 38.4921L107.763 28.7784L124.509 19.0647Z" fill="#FA693A"/>
<path d="M124.493 38.4603L124.475 57.8558L107.71 48.174L107.729 28.7785L124.493 38.4603Z" fill="#AD4929"/>
<path d="M124.351 38.4603L141.115 28.7785L141.134 48.1741L124.369 57.8559L124.351 38.4603Z" fill="#CF5830"/>
<path d="M141.065 28.5969L157.811 38.3106L141.065 48.0243L124.318 38.3106L141.065 28.5969Z" fill="#FA693A"/>
<path d="M141.049 47.9925L141.031 67.3881L124.266 57.7062L124.284 38.3107L141.049 47.9925Z" fill="#AD4929"/>
<path d="M140.906 47.9926L157.671 38.3108L157.689 57.7063L140.925 67.3881L140.906 47.9926Z" fill="#CF5830"/>
<path d="M157.62 38.1294L174.366 47.8431L157.62 57.5568L140.874 47.8431L157.62 38.1294Z" fill="#FA693A"/>
<path d="M157.605 57.525L157.586 76.9205L140.822 67.2387L140.84 47.8432L157.605 57.525Z" fill="#AD4929"/>
<path d="M157.462 57.5248L174.227 47.843L174.245 67.2385L157.48 76.9203L157.462 57.5248Z" fill="#5A28AD"/>
<path d="M90.8937 171.582L107.64 181.295L90.8937 191.009L74.1475 181.295L90.8937 171.582Z" fill="#FA693A"/>
<path d="M90.878 190.977L90.8596 210.373L74.0951 200.691L74.1134 181.295L90.878 190.977Z" fill="#AD4929"/>
<path d="M90.7354 190.977L107.5 181.295L107.518 200.691L90.7538 210.372L90.7354 190.977Z" fill="#CF5830"/>
<path d="M157.119 114.388L173.865 124.102L157.119 133.815L140.373 124.102L157.119 114.388Z" fill="#FA693A"/>
<path d="M157.104 133.784L157.085 153.179L140.321 143.497L140.339 124.102L157.104 133.784Z" fill="#AD4929"/>
<path d="M156.961 133.784L173.726 124.102L173.744 143.497L156.979 153.179L156.961 133.784Z" fill="#5A28AD"/>
<path d="M208.446 94.824C208.446 91.6335 209.265 88.7448 210.904 86.1579C212.571 83.5422 214.784 81.4584 217.544 79.9062C220.303 78.3541 223.364 77.578 226.727 77.578H255.743V86.6321H226.727C224.198 86.6321 222.027 87.4369 220.217 89.0466C218.435 90.6274 217.544 92.5389 217.544 94.7808V121.685C217.544 123.926 218.435 125.852 220.217 127.462C222.027 129.043 224.198 129.833 226.727 129.833H241.084C243.642 129.833 245.812 129.043 247.595 127.462C249.377 125.852 250.268 123.926 250.268 121.685V113.665H233.625V104.611H259.365V121.641C259.365 124.803 258.546 127.692 256.907 130.307C255.269 132.923 253.056 135.007 250.268 136.559C247.508 138.111 244.447 138.887 241.084 138.887H226.727C223.364 138.887 220.303 138.111 217.544 136.559C214.784 135.007 212.571 132.923 210.904 130.307C209.265 127.692 208.446 124.803 208.446 121.641V94.824Z" fill="#F2F2F2"/>
<path d="M269.324 110.259C269.324 107.299 270.043 104.611 271.48 102.197C272.946 99.7822 274.901 97.8564 277.344 96.4192C279.787 94.9533 282.489 94.2203 285.449 94.2203H310.37V138.887H301.273V103.318H285.449C283.524 103.318 281.871 104.007 280.491 105.387C279.112 106.738 278.422 108.391 278.422 110.345V122.676C278.422 124.631 279.112 126.312 280.491 127.721C281.871 129.1 283.524 129.79 285.449 129.79H296.099V138.887H285.449C282.489 138.887 279.787 138.169 277.344 136.732C274.901 135.266 272.946 133.311 271.48 130.868C270.043 128.425 269.324 125.723 269.324 122.762V110.259Z" fill="#F2F2F2"/>
<path d="M320.717 103.318C320.717 100.817 321.608 98.6755 323.39 96.8935C325.173 95.1114 327.328 94.2203 329.858 94.2203H343.482C347.161 94.2203 350.179 95.3701 352.536 97.6695C354.836 95.3701 357.854 94.2203 361.59 94.2203H368.316C371.277 94.2203 373.979 94.9533 376.422 96.4192C378.865 97.8564 380.805 99.7965 382.242 102.24C383.708 104.654 384.441 107.342 384.441 110.302V138.887H375.387V110.432C375.387 108.448 374.697 106.767 373.317 105.387C371.938 103.979 370.271 103.274 368.316 103.274H361.59C360.326 103.274 359.248 103.677 358.357 104.482C357.466 105.258 357.02 106.206 357.02 107.327V138.887H347.923V107.327C347.923 106.206 347.492 105.258 346.629 104.482C345.767 103.677 344.718 103.274 343.482 103.274H329.815V138.887H320.717V103.318Z" fill="#F2F2F2"/>
<path d="M393.754 82.062C393.754 80.5098 394.3 79.1876 395.392 78.0954C396.485 77.0032 397.807 76.457 399.359 76.457C400.911 76.457 402.233 77.0032 403.325 78.0954C404.418 79.1876 404.964 80.5098 404.964 82.062C404.964 83.6141 404.418 84.9363 403.325 86.0285C402.233 87.1208 400.911 87.6669 399.359 87.6669C397.807 87.6669 396.485 87.1208 395.392 86.0285C394.3 84.9363 393.754 83.6141 393.754 82.062ZM394.789 94.2203H403.929V138.887H394.789V94.2203Z" fill="#F2F2F2"/>
<path d="M444.241 82.062C444.241 80.5098 444.788 79.1876 445.88 78.0954C446.972 77.0032 448.294 76.457 449.846 76.457C451.398 76.457 452.721 77.0032 453.813 78.0954C454.905 79.1876 455.451 80.5098 455.451 82.062C455.451 83.6141 454.905 84.9363 453.813 86.0285C452.721 87.1208 451.398 87.6669 449.846 87.6669C448.294 87.6669 446.972 87.1208 445.88 86.0285C444.788 84.9363 444.241 83.6141 444.241 82.062ZM414.277 90.3831C414.277 88.0262 414.851 85.8848 416.001 83.959C417.18 82.0045 418.732 80.4523 420.658 79.3026C422.612 78.1529 424.768 77.578 427.125 77.578H437.084V86.6321H427.125C426.09 86.6321 425.199 87.0058 424.452 87.7531C423.733 88.4717 423.374 89.3484 423.374 90.3831V94.2203H454.416V138.887H445.276V103.274H423.374V138.887H414.277V90.3831Z" fill="#F2F2F2"/>
<path d="M464.548 110.345C464.548 107.385 465.296 104.683 466.79 102.24C468.285 99.7965 470.283 97.8564 472.783 96.4192C475.284 94.9533 478.058 94.2203 481.105 94.2203H506.241V103.318H481.105C479.064 103.318 477.31 104.022 475.845 105.43C474.379 106.81 473.646 108.491 473.646 110.475V122.59C473.646 124.573 474.364 126.269 475.801 127.677C477.267 129.086 479.035 129.79 481.105 129.79H506.241V138.887H481.105C478.058 138.887 475.284 138.154 472.783 136.688C470.283 135.223 468.285 133.268 466.79 130.825C465.296 128.353 464.548 125.637 464.548 122.676V110.345Z" fill="#F2F2F2"/>
<path d="M515.769 110.259C515.769 107.299 516.488 104.611 517.925 102.197C519.391 99.7822 521.345 97.8564 523.788 96.4192C526.231 94.9533 528.933 94.2203 531.894 94.2203H556.814V138.887H547.717V103.318H531.894C529.968 103.318 528.315 104.007 526.936 105.387C525.556 106.738 524.866 108.391 524.866 110.345V122.676C524.866 124.631 525.556 126.312 526.936 127.721C528.315 129.1 529.968 129.79 531.894 129.79H542.543V138.887H531.894C528.933 138.887 526.231 138.169 523.788 136.732C521.345 135.266 519.391 133.311 517.925 130.868C516.488 128.425 515.769 125.723 515.769 122.762V110.259Z" fill="#F2F2F2"/>
<path d="M585.658 77.578H596.997L618.943 138.887H609.242L602.559 120.434H585.443L588.719 111.38H599.282L591.349 89.4777L573.413 138.887H563.713L585.658 77.578Z" fill="#F2F2F2"/>
<path d="M624.849 82.062C624.849 80.5098 625.396 79.1876 626.488 78.0954C627.58 77.0032 628.902 76.457 630.454 76.457C632.007 76.457 633.329 77.0032 634.421 78.0954C635.513 79.1876 636.059 80.5098 636.059 82.062C636.059 83.6141 635.513 84.9363 634.421 86.0285C633.329 87.1208 632.007 87.6669 630.454 87.6669C628.902 87.6669 627.58 87.1208 626.488 86.0285C625.396 84.9363 624.849 83.6141 624.849 82.062ZM625.884 94.2203H635.025V138.887H625.884V94.2203Z" fill="#F2F2F2"/>
</svg>
